<svg width="200" height="200" xmlns="http://www.w3.org/2000/svg">
  <!-- Background -->
  <rect width="100%" height="100%" fill="white"/>
  
  <!-- WiFi Symbol -->
  <g transform="translate(50, 50)">
    <path d="M50 0C22.386 0 0 22.386 0 50H12.5C12.5 28.596 28.596 12.5 50 12.5S87.5 28.596 87.5 50H100C100 22.386 77.614 0 50 0Z" fill="#1f77b4"/>
    <path d="M50 25C35.745 25 25 35.745 25 50H37.5C37.5 41.72 41.72 37.5 50 37.5S62.5 41.72 62.5 50H75C75 35.745 64.255 25 50 25Z" fill="#1f77b4"/>
    <circle cx="50" cy="62.5" r="12.5" fill="#1f77b4"/>
  </g>
  
  <!-- Text -->
  <text x="50%" y="170" font-family="Arial" font-size="24" fill="black" text-anchor="middle">wpt-mode</text>
</svg>
